<svg width="49" height="48" viewBox="0 0 49 48" fill="none" xmlns="http://www.w3.org/2000/svg">
<g id="bitcoin 1" clip-path="url(#clip0_11_683)">
<g id="Group">
<g id="Group_2">
<path id="Vector" d="M48.5 24C48.5 37.2549 37.7549 48 24.5 48C17.5126 48 11.2226 45.0142 6.83698 40.2485C5.68498 38.9975 4.66522 37.6232 3.79731 36.1489C1.70196 32.5851 0.5 28.4327 0.5 24C0.5 10.7451 11.2451 0 24.5 0C28.9336 0 33.0861 1.20196 36.6489 3.29829C38.1232 4.16522 39.4966 5.18498 40.7475 6.33796C45.5132 10.7216 48.5 17.0126 48.5 24Z" fill="#F0CD00"/>
<path id="Vector_2" d="M48.5 24C48.5 36.9561 38.2348 47.5141 25.3934 47.9834C12.5519 47.5141 2.28674 36.9561 2.28674 24C2.28674 11.0439 12.5519 0.485887 25.3934 0.0166626C38.2348 0.485887 48.5 11.0439 48.5 24Z" fill="#FFDE50"/>
<path id="Vector_3" d="M40.7476 6.33795L6.83704 40.2485C5.68504 38.9975 4.66528 37.6232 3.79736 36.1489L36.649 3.29828C38.1232 4.16522 39.4966 5.18497 40.7476 6.33795Z" fill="#FFEA94"/>
<path id="Vector_4" d="M46.8445 15.2258L15.7248 46.3455C13.5217 45.4795 11.4773 44.2971 9.64844 42.8542L43.3542 9.14841C44.7972 10.9773 45.9795 13.0217 46.8445 15.2258Z" fill="#FFEA94"/>
<path id="Vector_5" d="M43.1495 24C43.1495 34.2994 34.7995 42.6495 24.5001 42.6495C20.9128 42.6495 17.5626 41.6366 14.7188 39.8811C13.4796 39.1171 12.3374 38.2109 11.3128 37.1863C10.5595 36.434 9.86985 35.616 9.25369 34.7432C8.40536 33.5412 7.69516 32.2344 7.14757 30.8464C6.33646 28.7941 5.87997 26.5626 5.85255 24.2292C5.85059 24.1528 5.85059 24.0764 5.85059 24C5.85059 13.7006 14.1996 5.35052 24.5001 5.35052C24.5765 5.35052 24.6539 5.35052 24.7303 5.35248C27.0636 5.37991 29.2942 5.83738 31.3464 6.6475C32.7345 7.19608 34.0413 7.9053 35.2432 8.75363C36.1161 9.37077 36.933 10.0594 37.6863 10.8127C38.711 11.8364 39.6171 12.9796 40.3812 14.2188C42.1366 17.0625 43.1495 20.4127 43.1495 24Z" fill="#FAA300"/>
<path id="Vector_6" d="M37.6863 10.8127L11.3128 37.1863C10.5595 36.434 9.86985 35.616 9.25369 34.7432C8.40536 33.5412 7.69516 32.2344 7.14757 30.8464C6.33646 28.7941 5.87997 26.5626 5.85255 24.2292C5.85059 24.1528 5.85059 24.0764 5.85059 24C5.85059 13.7006 14.1996 5.35052 24.5001 5.35052C24.5765 5.35052 24.6539 5.35052 24.7303 5.35248C27.0636 5.37991 29.2942 5.83738 31.3464 6.6475C32.7345 7.19608 34.0413 7.9053 35.2432 8.75363C36.1161 9.37077 36.933 10.0594 37.6863 10.8127Z" fill="#FFBD00"/>
<path id="Vector_7" d="M43.1489 24C43.1489 34.2994 34.7989 42.6495 24.4995 42.6495C24.1458 42.6495 23.7951 42.6397 23.4464 42.6201C33.256 42.0744 41.0418 33.9458 41.0418 24C41.0418 14.0542 33.256 5.92555 23.4464 5.37991C23.7951 5.36032 24.1458 5.35052 24.4995 5.35052C34.7989 5.35052 43.1489 13.7006 43.1489 24Z" fill="#F68E00"/>
</g>
<path id="Vector_8" d="M32.9753 28.7086C32.9753 26.2213 31.6898 24.03 29.7494 22.7599C30.5467 21.6611 31.0187 20.3116 31.0187 18.8531C31.0187 16.3345 29.6148 14.1381 27.5486 13.004V10.589C27.5486 9.50695 26.6715 8.62982 25.5894 8.62982C24.5074 8.62982 23.6302 9.50695 23.6302 10.589V12.1853H21.2657V10.589C21.2657 9.50695 20.3886 8.62982 19.3065 8.62982C18.2245 8.62982 17.3473 9.50695 17.3473 10.589V12.1853H15.045C13.9629 12.1853 13.0858 13.0625 13.0858 14.1445C13.0858 15.2266 13.9629 16.1037 15.045 16.1037H15.7211V23.5618V31.8963H15.045C13.9629 31.8963 13.0858 32.7734 13.0858 33.8555C13.0858 34.9375 13.9629 35.8147 15.045 35.8147H17.3474V37.411C17.3474 38.4931 18.2246 39.3702 19.3066 39.3702C20.3887 39.3702 21.2658 38.4931 21.2658 37.411V35.8147H23.6303V37.411C23.6303 38.4931 24.5075 39.3702 25.5895 39.3702C26.6716 39.3702 27.5487 38.4931 27.5487 37.411V35.6125C30.6588 34.8557 32.9753 32.0484 32.9753 28.7086ZM19.6395 16.1037H24.3509C25.867 16.1037 27.1003 17.3371 27.1003 18.8531C27.1003 20.3692 25.8669 21.6026 24.3509 21.6026H19.6395V16.1037ZM25.8694 31.8963H19.6395V25.521H24.3509H25.8694C27.627 25.521 29.057 26.951 29.057 28.7087C29.057 30.4664 27.627 31.8963 25.8694 31.8963Z" fill="#F68E00"/>
<path id="Vector_9" d="M35.4244 28.7086C35.4244 26.2213 34.1389 24.03 32.1984 22.7599C32.9958 21.6611 33.4678 20.3116 33.4678 18.8531C33.4678 16.3345 32.0638 14.1381 29.9977 13.004V10.589C29.9977 9.50695 29.1206 8.62982 28.0385 8.62982C26.9564 8.62982 26.0793 9.50695 26.0793 10.589V12.1853H23.7148V10.589C23.7148 9.50695 22.8376 8.62982 21.7556 8.62982C20.6735 8.62982 19.7964 9.50695 19.7964 10.589V12.1853H17.494C16.4119 12.1853 15.5348 13.0625 15.5348 14.1445C15.5348 15.2266 16.4119 16.1037 17.494 16.1037H18.1701V23.5618V31.8963H17.494C16.4119 31.8963 15.5348 32.7734 15.5348 33.8555C15.5348 34.9375 16.4119 35.8147 17.494 35.8147H19.7964V37.411C19.7964 38.4931 20.6735 39.3702 21.7556 39.3702C22.8376 39.3702 23.7148 38.4931 23.7148 37.411V35.8147H26.0793V37.411C26.0793 38.4931 26.9564 39.3702 28.0385 39.3702C29.1206 39.3702 29.9977 38.4931 29.9977 37.411V35.6125C33.108 34.8557 35.4244 32.0484 35.4244 28.7086ZM22.0886 16.1037H26.8C28.3161 16.1037 29.5494 17.3371 29.5494 18.8531C29.5494 20.3692 28.316 21.6026 26.8 21.6026H22.0886V16.1037ZM28.3185 31.8963H22.0886V25.521H26.8H28.3185C30.076 25.521 31.5061 26.951 31.5061 28.7087C31.5061 30.4664 30.0761 31.8963 28.3185 31.8963Z" fill="#FFEA94"/>
</g>
</g>
<defs>
<clipPath id="clip0_11_683">
<rect width="48" height="48" fill="white" transform="translate(0.5)"/>
</clipPath>
</defs>
</svg>
