<svg width="58" height="58" viewBox="0 0 58 58" fill="none" xmlns="http://www.w3.org/2000/svg">
<g id="bolt 1" clip-path="url(#clip0_12_1089)">
<path id="Vector" d="M29.0021 58.0003C41.8704 58.0035 53.2005 49.5233 56.8259 37.1764C60.4507 24.8294 55.5033 11.5705 44.6759 4.61692L46.0056 1.90026C46.2058 1.49092 46.18 1.00822 45.9387 0.622696C45.698 0.236531 45.2745 0.00225809 44.8194 0.00354532H23.7297C23.2251 0.00483251 22.7669 0.295099 22.55 0.750774C8.15955 4.02802 -1.47075 17.594 0.18203 32.2599C1.83481 46.9258 14.2436 58.008 29.0021 58.0003ZM18.7894 35.149C19.0397 35.4309 19.3982 35.5925 19.7754 35.5925H27.2888L23.6126 49.3676C14.7688 47.0352 8.43887 39.2642 7.94458 30.1315C7.44965 20.9987 12.9029 12.5899 21.443 9.3159L18.4663 34.1173C18.4212 34.4913 18.539 34.8671 18.7894 35.149ZM55.3643 29.0019C55.41 36.7671 52.0098 44.1524 46.0796 49.1661C40.1501 54.1799 32.3019 56.305 24.6526 54.9683C24.7163 54.9091 24.7736 54.8434 24.8238 54.772L26.3003 52.5573C27.1968 52.6648 28.0991 52.7214 29.0021 52.7279C39.417 52.7311 48.6154 45.941 51.679 35.987C54.7432 26.0336 50.9556 15.2455 42.3415 9.39185L43.5103 7.00085C50.9356 11.8511 55.3984 20.133 55.3643 29.0019ZM43.3456 25.7433C43.1164 25.3147 42.6691 25.047 42.1832 25.0476H34.691L41.1747 11.7803C48.6766 17.0836 51.8824 26.6328 49.1001 35.3878C46.3184 44.1434 38.189 50.091 29.0021 50.0917C28.6578 50.0917 28.3244 50.0556 27.9846 50.0402L43.2748 27.0968C43.5464 26.6933 43.5734 26.1733 43.3456 25.7433ZM24.8991 2.63976H42.7103L31.3957 25.7865C31.1962 26.1958 31.2213 26.6785 31.4626 27.064C31.704 27.4502 32.1268 27.6845 32.5819 27.6838H39.7221L27.0687 46.6747L30.2848 34.6142C30.391 34.2171 30.3054 33.7929 30.0538 33.4673C29.8021 33.1423 29.4134 32.953 29.0021 32.9562H21.2608L24.8991 2.63976ZM22.131 3.56205L21.7905 6.40422C11.7483 9.60488 5.02518 19.0518 5.29099 29.5883C5.5568 40.1254 12.7478 49.2215 22.9387 51.9118L22.4605 53.7055C22.391 53.9771 22.4116 54.2635 22.5184 54.5229C10.9045 51.581 2.73973 41.1713 2.64962 29.1911C2.55887 17.211 10.5654 6.67904 22.1336 3.56205H22.131Z" fill="#CDAA35"/>
<path id="Vector_2" d="M41.1698 39.1091C40.4444 39.9806 39.6283 40.7722 38.735 41.4712C38.354 41.7576 38.157 42.2274 38.2201 42.7005C38.2838 43.1735 38.5979 43.5751 39.042 43.7508C39.4854 43.9259 39.9894 43.848 40.3595 43.5468C41.4002 42.7326 42.3521 41.8097 43.1971 40.7935C43.6464 40.2322 43.5633 39.4148 43.0105 38.9553C42.4583 38.4958 41.639 38.564 41.1698 39.1091Z" fill="#CDAA35"/>
<path id="Vector_3" d="M14.4555 17.6448C13.7617 18.5337 13.1503 19.4843 12.629 20.4838C12.3966 20.9028 12.4095 21.4151 12.6631 21.8212C12.9173 22.228 13.371 22.4642 13.8499 22.4397C14.3281 22.4146 14.7554 22.1321 14.9659 21.7021C15.4132 20.8442 15.9384 20.0294 16.5344 19.2674C16.9823 18.6933 16.88 17.8649 16.3065 17.417C15.7324 16.9684 14.9035 17.0707 14.4555 17.6448Z" fill="#CDAA35"/>
</g>
<defs>
<clipPath id="clip0_12_1089">
<rect width="58" height="58" fill="white"/>
</clipPath>
</defs>
</svg>
