<svg width="58" height="58" viewBox="0 0 58 58" fill="none" xmlns="http://www.w3.org/2000/svg">
<g id="calendar 1">
<path id="Vector" d="M49.8438 9.0625H45.3125V8.15625C45.3125 7.43519 45.0261 6.74367 44.5162 6.2338C44.0063 5.72394 43.3148 5.4375 42.5938 5.4375C41.8727 5.4375 41.1812 5.72394 40.6713 6.2338C40.1614 6.74367 39.875 7.43519 39.875 8.15625V9.0625H36.25V8.15625C36.25 7.43519 35.9636 6.74367 35.4537 6.2338C34.9438 5.72394 34.2523 5.4375 33.5312 5.4375C32.8102 5.4375 32.1187 5.72394 31.6088 6.2338C31.0989 6.74367 30.8125 7.43519 30.8125 8.15625V9.0625H27.1875V8.15625C27.1875 7.43519 26.9011 6.74367 26.3912 6.2338C25.8813 5.72394 25.1898 5.4375 24.4688 5.4375C23.7477 5.4375 23.0562 5.72394 22.5463 6.2338C22.0364 6.74367 21.75 7.43519 21.75 8.15625V9.0625H17.2188V8.15625C17.2188 7.43519 16.9323 6.74367 16.4224 6.2338C15.9126 5.72394 15.2211 5.4375 14.5 5.4375C13.7789 5.4375 13.0874 5.72394 12.5776 6.2338C12.0677 6.74367 11.7812 7.43519 11.7812 8.15625V9.0625H8.15625C7.43544 9.06331 6.74439 9.35001 6.2347 9.8597C5.72501 10.3694 5.43831 11.0604 5.4375 11.7812V48.0312C5.43831 48.7521 5.72501 49.4431 6.2347 49.9528C6.74439 50.4625 7.43544 50.7492 8.15625 50.75H49.8438C50.5646 50.7492 51.2556 50.4625 51.7653 49.9528C52.275 49.4431 52.5617 48.7521 52.5625 48.0312V11.7812C52.5617 11.0604 52.275 10.3694 51.7653 9.8597C51.2556 9.35001 50.5646 9.06331 49.8438 9.0625ZM41.6875 8.15625C41.6875 7.9159 41.783 7.68539 41.9529 7.51543C42.1229 7.34548 42.3534 7.25 42.5938 7.25C42.8341 7.25 43.0646 7.34548 43.2346 7.51543C43.4045 7.68539 43.5 7.9159 43.5 8.15625V11.7812C43.5 12.0216 43.4045 12.2521 43.2346 12.4221C43.0646 12.592 42.8341 12.6875 42.5938 12.6875C42.3534 12.6875 42.1229 12.592 41.9529 12.4221C41.783 12.2521 41.6875 12.0216 41.6875 11.7812V8.15625ZM32.625 8.15625C32.625 7.9159 32.7205 7.68539 32.8904 7.51543C33.0604 7.34548 33.2909 7.25 33.5312 7.25C33.7716 7.25 34.0021 7.34548 34.1721 7.51543C34.342 7.68539 34.4375 7.9159 34.4375 8.15625V11.7812C34.4375 12.0216 34.342 12.2521 34.1721 12.4221C34.0021 12.592 33.7716 12.6875 33.5312 12.6875C33.2909 12.6875 33.0604 12.592 32.8904 12.4221C32.7205 12.2521 32.625 12.0216 32.625 11.7812V8.15625ZM23.5625 8.15625C23.5625 7.9159 23.658 7.68539 23.8279 7.51543C23.9979 7.34548 24.2284 7.25 24.4688 7.25C24.7091 7.25 24.9396 7.34548 25.1096 7.51543C25.2795 7.68539 25.375 7.9159 25.375 8.15625V11.7812C25.375 12.0216 25.2795 12.2521 25.1096 12.4221C24.9396 12.592 24.7091 12.6875 24.4688 12.6875C24.2284 12.6875 23.9979 12.592 23.8279 12.4221C23.658 12.2521 23.5625 12.0216 23.5625 11.7812V8.15625ZM13.5938 8.15625C13.5938 7.9159 13.6892 7.68539 13.8592 7.51543C14.0291 7.34548 14.2596 7.25 14.5 7.25C14.7404 7.25 14.9709 7.34548 15.1408 7.51543C15.3108 7.68539 15.4062 7.9159 15.4062 8.15625V11.7812C15.4062 12.0216 15.3108 12.2521 15.1408 12.4221C14.9709 12.592 14.7404 12.6875 14.5 12.6875C14.2596 12.6875 14.0291 12.592 13.8592 12.4221C13.6892 12.2521 13.5938 12.0216 13.5938 11.7812V8.15625ZM50.75 48.0312C50.7499 48.2716 50.6543 48.502 50.4844 48.6719C50.3145 48.8418 50.0841 48.9374 49.8438 48.9375H8.15625C7.91594 48.9374 7.68552 48.8418 7.5156 48.6719C7.34568 48.502 7.25015 48.2716 7.25 48.0312V18.125H50.75V48.0312ZM50.75 16.3125H7.25V11.7812C7.25015 11.5409 7.34568 11.3105 7.5156 11.1406C7.68552 10.9707 7.91594 10.8752 8.15625 10.875H11.7812V11.7812C11.7812 12.5023 12.0677 13.1938 12.5776 13.7037C13.0874 14.2136 13.7789 14.5 14.5 14.5C15.2211 14.5 15.9126 14.2136 16.4224 13.7037C16.9323 13.1938 17.2188 12.5023 17.2188 11.7812V10.875H21.75V11.7812C21.75 12.5023 22.0364 13.1938 22.5463 13.7037C23.0562 14.2136 23.7477 14.5 24.4688 14.5C25.1898 14.5 25.8813 14.2136 26.3912 13.7037C26.9011 13.1938 27.1875 12.5023 27.1875 11.7812V10.875H30.8125V11.7812C30.8125 12.5023 31.0989 13.1938 31.6088 13.7037C32.1187 14.2136 32.8102 14.5 33.5312 14.5C34.2523 14.5 34.9438 14.2136 35.4537 13.7037C35.9636 13.1938 36.25 12.5023 36.25 11.7812V10.875H39.875V11.7812C39.875 12.5023 40.1614 13.1938 40.6713 13.7037C41.1812 14.2136 41.8727 14.5 42.5938 14.5C43.3148 14.5 44.0063 14.2136 44.5162 13.7037C45.0261 13.1938 45.3125 12.5023 45.3125 11.7812V10.875H49.8438C50.0841 10.8752 50.3145 10.9707 50.4844 11.1406C50.6543 11.3105 50.7499 11.5409 50.75 11.7812V16.3125Z" fill="#CDAA35"/>
<path id="Vector_2" d="M20.0251 34.7163C20.1438 34.7079 20.2597 34.6762 20.3661 34.6229C20.4726 34.5697 20.5674 34.496 20.6454 34.4061C20.7233 34.3162 20.7827 34.2118 20.8203 34.0989C20.8578 33.986 20.8728 33.8667 20.8642 33.7481C20.7345 31.94 21.2108 30.1402 22.2177 28.6328C23.2246 27.1254 24.7048 25.9963 26.4247 25.4237C28.1447 24.8511 30.0063 24.8676 31.7158 25.4707C33.4253 26.0737 34.8853 27.2289 35.8653 28.7539C36.8453 30.2789 37.2895 32.0868 37.1278 33.8923C36.9661 35.6979 36.2077 37.3981 34.9723 38.7247C33.7368 40.0512 32.0948 40.9286 30.3054 41.2182C28.5159 41.5079 26.681 41.1933 25.0902 40.3242L26.7539 38.4437C26.8601 38.3235 26.9325 38.1772 26.9638 38.0199C26.995 37.8626 26.984 37.6998 26.9318 37.5481C26.8797 37.3965 26.7882 37.2613 26.6668 37.1565C26.5454 37.0517 26.3983 36.981 26.2406 36.9515L21.0456 35.9842C20.9018 35.9575 20.7538 35.966 20.614 36.0089C20.4742 36.0518 20.3469 36.1279 20.243 36.2307C20.139 36.3335 20.0614 36.4599 20.0169 36.5991C19.9723 36.7384 19.9621 36.8863 19.9872 37.0304L20.9784 42.7484C21.0075 42.9166 21.0835 43.0732 21.1977 43.2001C21.3119 43.327 21.4597 43.4191 21.6239 43.4657C21.7882 43.5123 21.9622 43.5116 22.1261 43.4636C22.2899 43.4156 22.4369 43.3223 22.55 43.1945L23.8599 41.7141C25.7733 42.8663 28.0181 43.3429 30.2345 43.0674C32.451 42.7919 34.5108 41.7804 36.0839 40.195C37.6571 38.6095 38.6525 36.5418 38.9106 34.3233C39.1687 32.1047 38.6746 29.8638 37.5075 27.9595C36.3404 26.0551 34.5678 24.5977 32.4738 23.8208C30.3798 23.0438 28.0856 22.9922 25.9588 23.6743C23.832 24.3565 21.9958 25.7328 20.7443 27.5827C19.4928 29.4327 18.8986 31.6492 19.0568 33.8771C19.0633 33.9965 19.0938 34.1133 19.1464 34.2207C19.199 34.328 19.2727 34.4237 19.363 34.502C19.4534 34.5803 19.5585 34.6396 19.6723 34.6765C19.786 34.7133 19.906 34.7268 20.0251 34.7163ZM22.4421 40.5812L21.9961 38.0049L24.336 38.4413L22.4421 40.5812Z" fill="#CDAA35"/>
<path id="Vector_3" d="M29.0054 26.8273C28.765 26.8273 28.5345 26.9227 28.3646 27.0927C28.1946 27.2627 28.0991 27.4932 28.0991 27.7335V33.171C28.0991 33.3117 28.1319 33.4505 28.1948 33.5763C28.2577 33.7021 28.3491 33.8116 28.4616 33.896L32.0866 36.6148C32.2793 36.7529 32.5183 36.81 32.7526 36.7739C32.9869 36.7379 33.1977 36.6114 33.3398 36.4218C33.482 36.2321 33.5442 35.9943 33.5131 35.7593C33.482 35.5244 33.36 35.3109 33.1734 35.1648L29.9109 32.7179V27.7335C29.9109 27.4933 29.8156 27.2629 29.6457 27.0929C29.4759 26.923 29.2456 26.8275 29.0054 26.8273Z" fill="#CDAA35"/>
<path id="Vector_4" d="M38.0625 43.5H39.875V45.3125H38.0625V43.5Z" fill="#CDAA35"/>
<path id="Vector_5" d="M41.6875 43.5H43.5V45.3125H41.6875V43.5Z" fill="#CDAA35"/>
<path id="Vector_6" d="M45.3125 43.5H47.125V45.3125H45.3125V43.5Z" fill="#CDAA35"/>
</g>
</svg>
