<svg width="49" height="48" viewBox="0 0 49 48" fill="none" xmlns="http://www.w3.org/2000/svg">
<g id="clock 1" clip-path="url(#clip0_11_815)">
<g id="Group">
<g id="Group_2">
<path id="Vector" d="M21.53 48C33.1444 48 42.5597 38.5846 42.5597 26.9702C42.5597 15.3558 33.1444 5.94052 21.53 5.94052C9.91557 5.94052 0.500244 15.3558 0.500244 26.9702C0.500244 38.5846 9.91557 48 21.53 48Z" fill="#DD636E"/>
<path id="Vector_2" d="M22.8799 47.9577C22.4336 47.985 21.9831 48 21.5299 48C9.91475 48 0.5 38.5839 0.5 26.9702C0.5 15.3564 9.91475 5.94028 21.5299 5.94028C21.9831 5.94028 22.4336 5.95528 22.8799 5.98256C11.8981 6.68428 3.20825 15.8123 3.20825 26.9702C3.20825 38.128 11.8981 47.2561 22.8799 47.9577Z" fill="#CB5769"/>
<path id="Vector_3" d="M21.5299 43.0431C30.4067 43.0431 37.6028 35.847 37.6028 26.9702C37.6028 18.0934 30.4067 10.8973 21.5299 10.8973C12.6531 10.8973 5.45703 18.0934 5.45703 26.9702C5.45703 35.847 12.6531 43.0431 21.5299 43.0431Z" fill="#D3EFFB"/>
<path id="Vector_4" d="M24.3381 42.8101C23.4482 42.9643 22.5321 43.0435 21.5985 43.0435C12.7216 43.0435 5.52515 35.847 5.52515 26.9702C5.52515 18.0934 12.7217 10.8969 21.5985 10.8969C22.5321 10.8969 23.4481 10.976 24.3381 11.1303C16.7676 12.4299 11.0058 19.027 11.0058 26.9702C11.0058 34.9134 16.7676 41.5106 24.3381 42.8101Z" fill="#9DC6FB"/>
<path id="Vector_5" d="M21.5299 29.0177H14.0625C12.9317 29.0177 12.0149 28.1009 12.0149 26.9701C12.0149 25.8393 12.9317 24.9225 14.0625 24.9225H21.5299C22.6607 24.9225 23.5775 25.8393 23.5775 26.9701C23.5774 28.101 22.6607 29.0177 21.5299 29.0177Z" fill="#365E7D"/>
<path id="Vector_6" d="M21.5298 29.0177C20.399 29.0177 19.4822 28.1009 19.4822 26.9701V21.7418C19.4822 20.611 20.399 19.6942 21.5298 19.6942C22.6606 19.6942 23.5774 20.611 23.5774 21.7418V26.9701C23.5773 28.101 22.6606 29.0177 21.5298 29.0177Z" fill="#2B4D66"/>
<g id="Group_3">
<g id="Group_4">
<path id="Vector_7" d="M21.5297 15.4341C21.1356 15.4341 20.8162 15.1146 20.8162 14.7205V11.5004C20.8162 11.1063 21.1357 10.7869 21.5297 10.7869C21.9238 10.7869 22.2432 11.1064 22.2432 11.5004V14.7205C22.2432 15.1146 21.9237 15.4341 21.5297 15.4341Z" fill="#365E7D"/>
<path id="Vector_8" d="M21.5297 43.1535C21.1356 43.1535 20.8162 42.834 20.8162 42.4399V39.2199C20.8162 38.8257 21.1357 38.5062 21.5297 38.5062C21.9238 38.5062 22.2432 38.8257 22.2432 39.2199V42.4399C22.2432 42.834 21.9237 43.1535 21.5297 43.1535Z" fill="#365E7D"/>
</g>
<g id="Group_5">
<path id="Vector_9" d="M36.9994 27.6837H33.7793C33.3852 27.6837 33.0657 27.3642 33.0657 26.9701C33.0657 26.576 33.3852 26.2566 33.7793 26.2566H36.9994C37.3936 26.2566 37.713 26.5761 37.713 26.9701C37.713 27.3643 37.3935 27.6837 36.9994 27.6837Z" fill="#365E7D"/>
<path id="Vector_10" d="M9.28009 27.6837H6.05997C5.66584 27.6837 5.34644 27.3642 5.34644 26.9701C5.34644 26.576 5.66594 26.2566 6.05997 26.2566H9.28009C9.67422 26.2566 9.99362 26.5761 9.99362 26.9701C9.99372 27.3643 9.67422 27.6837 9.28009 27.6837Z" fill="#365E7D"/>
</g>
<g id="Group_6">
<path id="Vector_11" d="M33.2815 20.8993C33.0349 20.8993 32.795 20.7713 32.6629 20.5424C32.4658 20.201 32.5828 19.7646 32.924 19.5677L34.5701 18.6173C34.9114 18.4202 35.3478 18.5372 35.5448 18.8785C35.7419 19.2199 35.6249 19.6563 35.2836 19.8532L33.6376 20.8036C33.5253 20.8684 33.4025 20.8993 33.2815 20.8993Z" fill="#365E7D"/>
<path id="Vector_12" d="M8.13309 35.4187C7.88653 35.4187 7.64662 35.2908 7.51444 35.0618C7.31737 34.7206 7.43428 34.2841 7.77563 34.0871L9.42169 33.1368C9.76294 32.9397 10.1994 33.0566 10.3964 33.3979C10.5935 33.7392 10.4766 34.1756 10.1352 34.3727L8.48925 35.323C8.37684 35.3879 8.25422 35.4187 8.13309 35.4187Z" fill="#365E7D"/>
</g>
<g id="Group_7">
<path id="Vector_13" d="M28.3136 15.9327C28.1926 15.9327 28.0699 15.9019 27.9575 15.837C27.6162 15.6399 27.4992 15.2035 27.6963 14.8623L28.6466 13.2162C28.8437 12.8749 29.2801 12.7579 29.6214 12.955C29.9626 13.1521 30.0796 13.5885 29.8826 13.9297L28.9322 15.5758C28.8001 15.8046 28.5603 15.9327 28.3136 15.9327Z" fill="#365E7D"/>
<path id="Vector_14" d="M13.7944 41.081C13.6733 41.081 13.5506 41.0502 13.4382 40.9853C13.097 40.7883 12.98 40.3518 13.177 40.0106L14.1274 38.3645C14.3244 38.0233 14.7608 37.9063 15.1021 38.1033C15.4433 38.3004 15.5603 38.7368 15.3633 39.0781L14.4129 40.7241C14.2808 40.9531 14.0409 41.081 13.7944 41.081Z" fill="#365E7D"/>
</g>
<g id="Group_8">
<path id="Vector_15" d="M14.7458 15.9327C14.4992 15.9327 14.2593 15.8047 14.1271 15.5758L13.1768 13.9297C12.9797 13.5884 13.0967 13.152 13.438 12.955C13.7792 12.758 14.2157 12.8749 14.4127 13.2162L15.363 14.8623C15.5601 15.2036 15.4431 15.64 15.1018 15.837C14.9896 15.9019 14.8669 15.9327 14.7458 15.9327Z" fill="#365E7D"/>
<path id="Vector_16" d="M29.2653 41.0811C29.0187 41.0811 28.7788 40.9531 28.6466 40.7241L27.6963 39.0781C27.4992 38.7367 27.6162 38.3003 27.9575 38.1034C28.2988 37.9063 28.7351 38.0232 28.9322 38.3646L29.8826 40.0106C30.0796 40.352 29.9626 40.7884 29.6214 40.9853C29.5091 41.0502 29.3863 41.0811 29.2653 41.0811Z" fill="#365E7D"/>
</g>
<g id="Group_9">
<path id="Vector_17" d="M9.77782 20.8993C9.65679 20.8993 9.53407 20.8685 9.42167 20.8036L7.7756 19.8532C7.43435 19.6562 7.31735 19.2198 7.51442 18.8785C7.71148 18.5373 8.14789 18.4202 8.48914 18.6173L10.1352 19.5677C10.4764 19.7647 10.5934 20.2011 10.3964 20.5424C10.2643 20.7712 10.0245 20.8993 9.77782 20.8993Z" fill="#365E7D"/>
<path id="Vector_18" d="M34.9263 35.4187C34.8053 35.4187 34.6825 35.3879 34.5701 35.323L32.9241 34.3727C32.5827 34.1756 32.4658 33.7392 32.6629 33.398C32.8598 33.0566 33.2962 32.9397 33.6376 33.1368L35.2837 34.0871C35.625 34.2842 35.7419 34.7206 35.5448 35.0618C35.4127 35.2908 35.1728 35.4187 34.9263 35.4187Z" fill="#365E7D"/>
</g>
</g>
<path id="Vector_19" d="M21.5299 43.9945C12.1427 43.9945 4.50562 36.3575 4.50562 26.9702C4.50562 17.5829 12.1427 9.94583 21.5299 9.94583C30.9171 9.94583 38.5541 17.583 38.5541 26.9702C38.5541 36.3574 30.9171 43.9945 21.5299 43.9945ZM21.5299 11.8488C13.1919 11.8488 6.40846 18.6322 6.40846 26.9702C6.40846 35.3081 13.1919 42.0916 21.5299 42.0916C29.8679 42.0916 36.6513 35.3081 36.6513 26.9702C36.6513 18.6322 29.8678 11.8488 21.5299 11.8488Z" fill="#CB5769"/>
</g>
<g id="Group_10">
<path id="Vector_20" d="M38.6035 19.7929C44.0691 19.7929 48.4999 15.3621 48.4999 9.89644C48.4999 4.43079 44.0691 0 38.6035 0C33.1378 0 28.707 4.43079 28.707 9.89644C28.707 15.3621 33.1378 19.7929 38.6035 19.7929Z" fill="#95D6A4"/>
<path id="Vector_21" d="M39.7214 19.731C39.3551 19.7726 38.9815 19.7935 38.6039 19.7935C33.1379 19.7935 28.707 15.3626 28.707 9.89655C28.707 4.4313 33.1379 0.000396729 38.6039 0.000396729C38.9816 0.000396729 39.3551 0.0212092 39.7214 0.0628342C34.7818 0.618022 30.942 4.80893 30.942 9.89655C30.942 14.9849 34.7818 19.1758 39.7214 19.731Z" fill="#78C2A4"/>
<path id="Vector_22" d="M35.7018 15.6904L32.6077 10.5143C32.3096 10.0156 32.4721 9.36956 32.971 9.07143L34.5319 8.13834C35.0307 7.84021 35.6767 8.00278 35.9748 8.50162L37.545 11.1282L40.77 4.62206C41.0281 4.10146 41.6593 3.88856 42.18 4.14665L43.8092 4.95431C44.3298 5.2124 44.5427 5.84362 44.2846 6.36431L39.7405 15.5317C39.5695 15.8766 39.2238 16.1006 38.8392 16.1157L36.6464 16.202C36.2616 16.217 35.8994 16.0207 35.7018 15.6904Z" fill="#F9F6F9"/>
</g>
</g>
</g>
<defs>
<clipPath id="clip0_11_815">
<rect width="48" height="48" fill="white" transform="translate(0.5)"/>
</clipPath>
</defs>
</svg>
