<svg width="20" height="20" viewBox="0 0 20 20" fill="none" xmlns="http://www.w3.org/2000/svg">
<path id="Union" fill-rule="evenodd" clip-rule="evenodd" d="M2.00836 0.34458C1.54892 -0.11486 0.804019 -0.11486 0.34458 0.34458C-0.11486 0.804021 -0.11486 1.54892 0.34458 2.00836L8.33622 10L0.344614 17.9916C-0.114826 18.4511 -0.114826 19.196 0.344614 19.6554C0.804053 20.1149 1.54895 20.1149 2.00839 19.6554L10 11.6638L17.9916 19.6554C18.451 20.1149 19.1959 20.1149 19.6554 19.6554C20.1148 19.196 20.1148 18.4511 19.6554 17.9916L11.6638 10L19.6554 2.00836C20.1149 1.54892 20.1149 0.804021 19.6554 0.34458C19.196 -0.11486 18.4511 -0.11486 17.9916 0.34458L10 8.33624L2.00836 0.34458Z" fill="white"/>
</svg>
