<svg width="58" height="58" viewBox="0 0 58 58" fill="none" xmlns="http://www.w3.org/2000/svg">
<g id="data-protection 1">
<path id="Vector" d="M4.53125 38.0625H34.4375V51.6562C34.4383 52.3771 34.725 53.0681 35.2347 53.5778C35.7444 54.0875 36.4354 54.3742 37.1562 54.375H51.6562C52.3771 54.3742 53.0681 54.0875 53.5778 53.5778C54.0875 53.0681 54.3742 52.3771 54.375 51.6562V26.2812C54.3742 25.5604 54.0875 24.8694 53.5778 24.3597C53.0681 23.85 52.3771 23.5633 51.6562 23.5625H46.2188V8.15625C46.2173 6.95492 45.7395 5.8032 44.89 4.95373C44.0406 4.10426 42.8888 3.62641 41.6875 3.625H9.0625C7.86117 3.62641 6.70945 4.10426 5.85998 4.95373C5.01051 5.8032 4.53266 6.95492 4.53125 8.15625V30.8125H2.71875C2.4784 30.8125 2.24789 30.908 2.07793 31.0779C1.90798 31.2479 1.8125 31.4784 1.8125 31.7188V35.3438C1.81331 36.0646 2.10001 36.7556 2.6097 37.2653C3.11939 37.775 3.81044 38.0617 4.53125 38.0625ZM9.96875 30.8125V9.0625H40.7812V23.5625H37.1562C36.4354 23.5633 35.7444 23.85 35.2347 24.3597C34.725 24.8694 34.4383 25.5604 34.4375 26.2812V30.8125H9.96875ZM29 32.625C28.9997 32.8653 28.9041 33.0956 28.7342 33.2654C28.5643 33.4353 28.334 33.5309 28.0938 33.5312H22.6562C22.416 33.5309 22.1857 33.4353 22.0158 33.2654C21.8459 33.0956 21.7503 32.8653 21.75 32.625H29ZM52.5625 47.125H36.25V29H52.5625V47.125ZM51.6562 52.5625H37.1562C36.916 52.5622 36.6857 52.4666 36.5158 52.2967C36.3459 52.1268 36.2503 51.8965 36.25 51.6562V48.9375H52.5625V51.6562C52.5622 51.8965 52.4666 52.1268 52.2967 52.2967C52.1268 52.4666 51.8965 52.5622 51.6562 52.5625ZM52.5625 26.2812V27.1875H36.25V26.2812C36.2503 26.041 36.3459 25.8107 36.5158 25.6408C36.6857 25.4709 36.916 25.3753 37.1562 25.375H51.6562C51.8965 25.3753 52.1268 25.4709 52.2967 25.6408C52.4666 25.8107 52.5622 26.041 52.5625 26.2812ZM6.34375 8.15625C6.34456 7.43544 6.63126 6.74439 7.14095 6.2347C7.65064 5.72501 8.34169 5.43831 9.0625 5.4375H41.6875C42.4083 5.43831 43.0994 5.72501 43.6091 6.2347C44.1187 6.74439 44.4054 7.43544 44.4062 8.15625V23.5625H42.5938V9.0625C42.5933 8.58194 42.4022 8.1212 42.0624 7.7814C41.7225 7.44159 41.2618 7.25048 40.7812 7.25H9.96875C9.48819 7.25048 9.02745 7.44159 8.68765 7.7814C8.34784 8.1212 8.15673 8.58194 8.15625 9.0625V30.8125H6.34375V8.15625ZM3.625 32.625H19.9375C19.9383 33.3458 20.225 34.0369 20.7347 34.5466C21.2444 35.0562 21.9354 35.3429 22.6562 35.3438H28.0938C28.8146 35.3429 29.5056 35.0562 30.0153 34.5466C30.525 34.0369 30.8117 33.3458 30.8125 32.625H34.4375V36.25H4.53125C4.291 36.2497 4.06068 36.1541 3.8908 35.9842C3.72092 35.8143 3.62533 35.584 3.625 35.3438V32.625Z" fill="#CDAA35"/>
<path id="Vector_2" d="M44.0472 44.3307C44.0508 44.3323 44.054 44.3343 44.0577 44.3358C44.0615 44.3372 44.0654 44.34 44.0691 44.3417C44.2853 44.4278 44.5263 44.4278 44.7426 44.3417C44.7467 44.34 44.7503 44.3375 44.7539 44.3358C44.7576 44.3341 44.7609 44.3323 44.7645 44.3307C46.2676 43.7301 47.5556 42.6917 48.4613 41.3501C49.367 40.0086 49.8487 38.4258 49.8438 36.8071V34.4375C49.8438 34.281 49.8033 34.1272 49.7262 33.9911C49.6491 33.8549 49.5381 33.741 49.4039 33.6605L44.8727 30.9417C44.8485 30.9272 44.8217 30.9212 44.7968 30.9092C44.7711 30.8966 44.7448 30.8852 44.718 30.8752C44.5171 30.8005 44.2959 30.8005 44.095 30.8752C44.068 30.8852 44.0415 30.8966 44.0157 30.9092C43.9908 30.9211 43.9638 30.9272 43.9398 30.9417L39.4085 33.6605C39.2744 33.741 39.1634 33.8549 39.0863 33.9911C39.0093 34.1272 38.9688 34.281 38.9688 34.4375V36.8071C38.9638 38.4257 39.4453 40.0084 40.3509 41.3499C41.2564 42.6915 42.5442 43.73 44.0472 44.3307ZM48.0313 36.8071C48.0336 37.8261 47.7871 38.8303 47.3134 39.7324C46.8396 40.6346 46.1528 41.4075 45.3125 41.9841V33.3193L48.0313 34.9505V36.8071ZM40.7813 34.9508L43.5 33.3195V41.9843C42.6598 41.4077 41.973 40.6348 41.4992 39.7327C41.0254 38.8305 40.779 37.8263 40.7813 36.8073V34.9508Z" fill="#CDAA35"/>
<path id="Vector_3" d="M32.2453 15.5748L25.9015 11.0436C25.7478 10.9338 25.5637 10.8748 25.3748 10.8748C25.1859 10.8748 25.0017 10.9338 24.848 11.0436L18.5043 15.5748C18.3869 15.6587 18.2912 15.7694 18.2253 15.8977C18.1593 16.026 18.1249 16.1682 18.125 16.3125V18.3945C18.1274 20.399 18.6585 22.3673 19.6646 24.101C20.6707 25.8347 22.1163 27.2724 23.8554 28.269L24.9254 28.8807C25.0471 28.9503 25.1833 28.9908 25.3233 28.9988C25.4633 29.0068 25.6032 28.9821 25.7321 28.9268C27.7789 28.0515 29.5234 26.594 30.7489 24.7355C31.9744 22.877 32.6267 20.6994 32.625 18.4732V16.3125C32.625 16.1682 32.5906 16.026 32.5245 15.8977C32.4585 15.7693 32.3627 15.6587 32.2453 15.5748ZM30.8125 18.4732C30.8139 20.2691 30.3089 22.0289 29.3554 23.5507C28.4018 25.0724 27.0385 26.2945 25.4219 27.0765L24.7546 26.6954C23.2926 25.8576 22.0775 24.649 21.2317 23.1916C20.386 21.7342 19.9396 20.0795 19.9375 18.3945V16.7789L25.375 12.895L30.8125 16.7789V18.4732Z" fill="#CDAA35"/>
<path id="Vector_4" d="M24.8723 15.5585L22.1535 17.371C22.0294 17.4538 21.9276 17.5659 21.8572 17.6974C21.7868 17.829 21.75 17.9758 21.75 18.125V19.3888C21.7488 20.5433 22.0333 21.6802 22.5781 22.6981C23.1228 23.716 23.911 24.5833 24.8723 25.2228C24.9712 25.2902 25.0826 25.3373 25.1999 25.3614C25.3172 25.3856 25.4382 25.3862 25.5557 25.3633C25.6733 25.3404 25.7851 25.2944 25.8848 25.228C25.9845 25.1616 26.07 25.0761 26.1364 24.9765C26.2029 24.8768 26.2489 24.765 26.2719 24.6474C26.2948 24.5299 26.2942 24.409 26.2702 24.2916C26.2461 24.1743 26.199 24.0629 26.1316 23.9639C26.0643 23.8649 25.9779 23.7802 25.8776 23.7148C25.1649 23.2406 24.5805 22.5975 24.1765 21.8427C23.7726 21.0879 23.5616 20.2449 23.5625 19.3888V18.61L25.8776 17.0665C25.9779 17.0011 26.0643 16.9164 26.1316 16.8174C26.199 16.7184 26.2461 16.607 26.2702 16.4897C26.2942 16.3723 26.2948 16.2514 26.2719 16.1339C26.2489 16.0163 26.2029 15.9045 26.1364 15.8048C26.07 15.7052 25.9845 15.6197 25.8848 15.5533C25.7851 15.4869 25.6733 15.4409 25.5557 15.418C25.4382 15.3951 25.3172 15.3958 25.1999 15.4199C25.0826 15.444 24.9712 15.4911 24.8723 15.5585Z" fill="#CDAA35"/>
<path id="Vector_5" d="M11.7812 27.1875H13.5938V29H11.7812V27.1875Z" fill="#CDAA35"/>
<path id="Vector_6" d="M15.4062 27.1875H17.2188V29H15.4062V27.1875Z" fill="#CDAA35"/>
<path id="Vector_7" d="M11.7812 23.5625H13.5938V25.375H11.7812V23.5625Z" fill="#CDAA35"/>
<path id="Vector_8" d="M38.0625 43.5H39.875V45.3125H38.0625V43.5Z" fill="#CDAA35"/>
</g>
</svg>
