<svg width="49" height="48" viewBox="0 0 49 48" fill="none" xmlns="http://www.w3.org/2000/svg">
<g id="gambler 1" clip-path="url(#clip0_11_849)">
<path id="Vector" d="M40.1942 37.2797H38.8662V35.831H40.1942C42.1912 35.831 43.8159 34.2063 43.8159 32.2092V23.7585H45.2646V32.2092C45.2646 35.0051 42.9901 37.2797 40.1942 37.2797Z" fill="#8B9BA9"/>
<path id="Vector_2" d="M44.5403 24.4829C45.3404 24.4829 45.989 23.8343 45.989 23.0342C45.989 22.2341 45.3404 21.5855 44.5403 21.5855C43.7402 21.5855 43.0916 22.2341 43.0916 23.0342C43.0916 23.8343 43.7402 24.4829 44.5403 24.4829Z" fill="#C5324F"/>
<path id="Vector_3" d="M17.498 5.07047H27.156V2.89734C27.156 1.29713 25.8589 0 24.2586 0H20.3955C18.7953 0 17.4981 1.29713 17.4981 2.89734V5.07047H17.498Z" fill="#FF5368"/>
<path id="Vector_4" d="M17.5891 2.17303C17.5295 2.4045 17.4978 2.64722 17.4978 2.89734V5.07037L22.2946 6.61566L27.1557 5.07037V2.89734C27.1558 1.29713 25.8587 0 24.2585 0C24.2585 1.20009 23.2856 2.17303 22.0855 2.17303H17.5891Z" fill="#C5324F"/>
<path id="Vector_5" d="M15.5664 7.96781L22.327 11.4447L29.0876 7.96781V7.002C29.0876 5.93522 28.2228 5.07037 27.156 5.07037H17.498C16.4313 5.07037 15.5664 5.93512 15.5664 7.002V7.96781Z" fill="#8B9BA9"/>
<path id="Vector_6" d="M4.94263 48H39.7112V10.8651C39.7112 9.26493 38.4141 7.9678 36.8139 7.9678H7.84006C6.23985 7.9678 4.94272 9.26493 4.94272 10.8651L4.94263 48Z" fill="#FFB545"/>
<path id="Vector_7" d="M4.94263 45.1026V48H39.7112V10.8651C39.7112 9.26493 38.4141 7.9678 36.8139 7.9678V45.1026H4.94263Z" fill="#FF983B"/>
<path id="Vector_8" d="M22.327 12.4104H4.45971C3.65964 12.4104 3.01099 13.0591 3.01099 13.8591V32.2092C3.01099 33.0093 3.65964 33.6579 4.45971 33.6579H22.3269H40.194C40.9941 33.6579 41.6427 33.0093 41.6427 32.2092V13.8591C41.6427 13.0591 40.9941 12.4104 40.194 12.4104H22.327Z" fill="#FF7E40"/>
<path id="Vector_9" d="M40.194 12.4104H38.7453V30.7605H3.01099V32.2092C3.01099 33.0093 3.65964 33.6579 4.45971 33.6579H22.3269H40.194C40.9941 33.6579 41.6427 33.0093 41.6427 32.2092V13.8591C41.6427 13.0591 40.9941 12.4104 40.194 12.4104Z" fill="#FF6344"/>
<g id="Group">
<path id="Vector_10" d="M17.5782 17.4809H8.08154V28.5876H17.5782V17.4809Z" fill="#FFF9EB"/>
<path id="Vector_11" d="M36.5726 17.4809H27.0759V28.5876H36.5726V17.4809Z" fill="#FFF9EB"/>
</g>
<g id="Group_2">
<path id="Vector_12" d="M27.0748 17.4809H17.5781V28.5876H27.0748V17.4809Z" fill="#E9E3D5"/>
<path id="Vector_13" d="M27.0754 25.6901V28.5876H36.5724V17.4809H33.675V25.6901H27.0754Z" fill="#E9E3D5"/>
</g>
<path id="Vector_14" d="M27.0748 25.6901H17.5781V28.5875H27.0748V25.6901Z" fill="#D3CDBF"/>
<path id="Vector_15" d="M17.5782 25.6901H8.08154V28.5875H17.5782V25.6901Z" fill="#E9E3D5"/>
<g id="Group_3">
<path id="Vector_16" d="M14.3323 19.6058H11.3276C10.9276 19.6058 10.6033 19.9301 10.6033 20.3301V20.9111C10.6033 21.3111 10.9276 21.6354 11.3276 21.6354C11.6786 21.6354 11.9712 21.3858 12.0377 21.0544H12.8868C12.2769 22.0167 11.8156 23.22 11.7268 25.0755C11.4718 25.1876 11.2936 25.4422 11.2936 25.7385C11.2936 26.1386 11.6178 26.4628 12.0179 26.4628H12.8871C13.2871 26.4628 13.6114 26.1386 13.6114 25.7385C13.6114 25.4418 13.4328 25.1873 13.1776 25.0752C13.313 22.6774 14.1796 21.6406 14.8876 20.7951C15.0681 20.5794 15.1076 20.2786 14.9885 20.0236C14.8695 19.7687 14.6136 19.6058 14.3323 19.6058Z" fill="#C5324F"/>
<path id="Vector_17" d="M23.8293 19.6057H20.8247C20.4246 19.6057 20.1003 19.93 20.1003 20.33V20.911C20.1003 21.311 20.4246 21.6353 20.8247 21.6353C21.1757 21.6353 21.4682 21.3857 21.5348 21.0543H22.384C21.7741 22.0167 21.3127 23.22 21.2239 25.0755C20.9689 25.1876 20.7907 25.4421 20.7907 25.7385C20.7907 26.1385 21.115 26.4628 21.515 26.4628H22.3843C22.7843 26.4628 23.1086 26.1385 23.1086 25.7385C23.1086 25.4417 22.93 25.1872 22.6747 25.0752C22.8102 22.6773 23.6767 21.6406 24.3847 20.795C24.5653 20.5793 24.6047 20.2786 24.4857 20.0236C24.3666 19.7687 24.1107 19.6057 23.8293 19.6057Z" fill="#C5324F"/>
<path id="Vector_18" d="M33.9825 20.0235C33.8635 19.7685 33.6076 19.6056 33.3262 19.6056H30.3215C29.9214 19.6056 29.5972 19.9298 29.5972 20.3299V20.9108C29.5972 21.3109 29.9214 21.6352 30.3215 21.6352C30.6725 21.6352 30.9651 21.3856 31.0316 21.0542H31.8807C31.2708 22.0165 30.8095 23.2198 30.7207 25.0753C30.4657 25.1874 30.2874 25.442 30.2874 25.7383C30.2874 26.1383 30.6117 26.4626 31.0118 26.4626H31.881C32.281 26.4626 32.6053 26.1383 32.6053 25.7383C32.6053 25.4416 32.4267 25.187 32.1714 25.075C32.3068 22.6772 33.1734 21.6405 33.8814 20.7949C34.0621 20.5792 34.1015 20.2785 33.9825 20.0235Z" fill="#C5324F"/>
</g>
<path id="Vector_19" d="M15.5664 39.4527C15.5664 41.053 16.8635 42.3501 18.4638 42.3501H26.1901C27.7903 42.3501 29.0874 41.053 29.0874 39.4527C29.0874 37.8525 27.7903 36.5554 26.1901 36.5554H18.4638C16.8636 36.5554 15.5664 37.8525 15.5664 39.4527Z" fill="#8B9BA9"/>
<path id="Vector_20" d="M26.1257 40.177H18.3994C17.9993 40.177 17.675 39.8527 17.675 39.4527C17.675 39.0527 17.9993 38.7284 18.3994 38.7284H26.1257C26.5257 38.7284 26.85 39.0527 26.85 39.4527C26.85 39.8527 26.5258 40.177 26.1257 40.177Z" fill="#4D5967"/>
</g>
<defs>
<clipPath id="clip0_11_849">
<rect width="48" height="48" fill="white" transform="translate(0.5)"/>
</clipPath>
</defs>
</svg>
