<svg width="49" height="48" viewBox="0 0 49 48" fill="none" xmlns="http://www.w3.org/2000/svg">
<g id="jackpot 1" clip-path="url(#clip0_11_874)">
<g id="Group">
<g id="Group_2">
<path id="Vector" fill-rule="evenodd" clip-rule="evenodd" d="M28.0812 7.93913L24.7225 3.51985C24.6099 3.37172 24.3872 3.37172 24.2746 3.51985L20.9158 7.93913C20.8306 8.05125 20.8415 8.20903 20.9411 8.30841L22.1677 9.53175C22.2573 9.62119 22.2761 9.75938 22.2138 9.86953L21.3695 11.3597C19.9063 13.9414 16.3435 12.0729 17.4657 9.47878C17.5328 9.32382 17.4504 9.14494 17.2885 9.09694L12.6117 7.71103C12.3981 7.64775 12.1991 7.84622 12.262 8.06007L15.7929 20.0622L24.4999 23.0813L33.2044 20.0622L36.7352 8.06016C36.7981 7.84632 36.5992 7.64775 36.3854 7.71113L31.7112 9.09694C31.5494 9.14494 31.467 9.32363 31.5339 9.4786C32.6539 12.0728 29.091 13.9414 27.6305 11.3597L26.7837 9.86963C26.7211 9.75947 26.74 9.621 26.8297 9.53157L28.056 8.30841C28.1557 8.20903 28.1665 8.05125 28.0812 7.93913Z" fill="#FEB237"/>
</g>
<g id="Group_3">
<path id="Vector_2" fill-rule="evenodd" clip-rule="evenodd" d="M34.0947 8.52215L30.7206 19.9996C30.7085 20.0408 30.6871 20.0787 30.6581 20.1103L30.2877 20.5142C30.0903 20.7294 30.3113 21.0657 30.5872 20.97L33.0676 20.1097C33.1535 20.0798 33.2196 20.0105 33.2453 19.9233L36.7353 8.05968C36.7982 7.84593 36.5994 7.64746 36.3857 7.71056L34.2848 8.33165C34.1933 8.35884 34.1216 8.43046 34.0947 8.52215Z" fill="#ECA026"/>
</g>
<g id="Group_4">
<path id="Vector_3" fill-rule="evenodd" clip-rule="evenodd" d="M10.0573 39.1301C19.3791 39.1301 28.6928 39.1029 38.0201 39.1301H38.9399C44.1991 39.1301 48.5 34.8403 48.5 29.5975C48.5 24.352 44.1991 20.0622 38.9399 20.0622H33.2045H30.7022H24.4986H15.7927H10.0573C4.80087 20.0622 0.5 24.352 0.5 29.5975C0.5 34.8403 4.80087 39.1301 10.0573 39.1301Z" fill="#FE3D97"/>
</g>
<g id="Group_5">
<path id="Vector_4" fill-rule="evenodd" clip-rule="evenodd" d="M26.6559 15.4147L24.4986 13.263L22.344 15.4147L24.4986 17.5664L26.6559 15.4147Z" fill="#C8EFFE"/>
</g>
<g id="Group_6">
<path id="Vector_5" fill-rule="evenodd" clip-rule="evenodd" d="M35.0005 20.0622C40.2569 20.0622 44.5577 24.352 44.5577 29.5975C44.5577 34.1331 41.3382 37.956 37.0647 38.9063L37.9215 39.0483C37.99 39.0593 38.0228 39.0893 38.0201 39.1302H38.94C44.1991 39.1301 48.5 34.8403 48.5 29.5975C48.5 24.352 44.1991 20.0622 38.94 20.0622H35.0005Z" fill="#E41E7F"/>
</g>
<g id="Group_7">
<path id="Vector_6" d="M12.8303 26.4653C12.8266 26.4562 12.8228 26.4472 12.8188 26.4382C12.6826 26.1324 12.3767 25.9351 12.0396 25.9351C11.7023 25.9351 11.3964 26.1325 11.2602 26.4382C11.2565 26.4465 11.253 26.4547 11.2496 26.4633L9.15807 31.6732C9.00901 32.0445 9.1891 32.4663 9.56044 32.6152C9.93169 32.7645 10.3535 32.5841 10.5024 32.2129L10.8407 31.3703H13.2224L13.5567 32.2108C13.6696 32.4947 13.942 32.6676 14.23 32.6676C14.3191 32.6676 14.4098 32.6511 14.4975 32.6161C14.8692 32.4682 15.0507 32.0471 14.9028 31.6753L12.8303 26.4653ZM11.4221 29.9217L12.0368 28.3905L12.6459 29.9217H11.4221Z" fill="#DFF6FD"/>
<path id="Vector_7" d="M24.3792 29.255L26.4887 27.3186C26.7835 27.0481 26.8031 26.5897 26.5326 26.2951C26.2621 26.0004 25.8038 25.9807 25.5091 26.2512L23.8761 27.7501V26.7194C23.8761 26.3193 23.5518 25.9951 23.1518 25.9951C22.7518 25.9951 22.4275 26.3194 22.4275 26.7194V32.0003C22.4275 32.4005 22.7518 32.7246 23.1518 32.7246C23.5518 32.7246 23.8761 32.4004 23.8761 32.0003V30.7812L25.6856 32.5222C25.8261 32.6575 26.0071 32.7246 26.1877 32.7246C26.3777 32.7246 26.5676 32.6503 26.7097 32.5026C26.9871 32.2143 26.9782 31.7557 26.69 31.4783L24.3792 29.255Z" fill="#DFF6FD"/>
<path id="Vector_8" d="M6.76382 26.0087C6.36379 26.0087 6.03951 26.3329 6.03951 26.733V30.9545C6.03951 31.0844 5.9736 31.2017 5.86682 31.2609C5.67454 31.3679 5.41729 31.1328 5.40651 31.1226C5.11298 30.8507 4.65473 30.8679 4.38285 31.1614C4.11088 31.4547 4.12823 31.9129 4.42157 32.1849C4.74219 32.4822 5.22988 32.7399 5.76388 32.7399C6.02629 32.7399 6.29994 32.6777 6.57051 32.5272C7.13657 32.2131 7.48823 31.6104 7.48823 30.9544V26.7329C7.48823 26.3329 7.16385 26.0087 6.76382 26.0087Z" fill="#DFF6FD"/>
<path id="Vector_9" d="M20.9419 30.7138C20.634 30.4585 20.1774 30.5011 19.922 30.809C19.8798 30.8599 19.8336 30.9078 19.7875 30.9488C19.5285 31.1769 19.2003 31.2925 18.8124 31.2925C17.7521 31.2925 16.8894 30.4329 16.8894 29.3764C16.8894 28.3182 17.7521 27.4574 18.8124 27.4574C19.1974 27.4574 19.5692 27.5712 19.8879 27.7864C20.2194 28.0104 20.6697 27.9233 20.8936 27.5919C21.1176 27.2604 21.0305 26.8101 20.699 26.5863C20.1399 26.2084 19.4875 26.0088 18.8124 26.0088C16.9532 26.0088 15.4407 27.5195 15.4407 29.3764C15.4407 31.2319 16.9532 32.7412 18.8124 32.7412C19.5526 32.7412 20.2209 32.4974 20.7477 32.0337C20.8512 31.9416 20.9486 31.8408 21.0373 31.7338C21.2925 31.4257 21.2499 30.9691 20.9419 30.7138Z" fill="#DFF6FD"/>
<path id="Vector_10" d="M44.2839 25.8259H41.3601C40.9599 25.8259 40.6357 26.1501 40.6357 26.5502C40.6357 26.9502 40.96 27.2745 41.3601 27.2745H42.0921V31.8338C42.0921 32.234 42.4164 32.5581 42.8165 32.5581C43.2165 32.5581 43.5408 32.2339 43.5408 31.8338V27.2745H44.2839C44.6841 27.2745 45.0082 26.9502 45.0082 26.5502C45.0082 26.1501 44.6841 25.8259 44.2839 25.8259Z" fill="#DFF6FD"/>
<path id="Vector_11" d="M30.4806 25.9952H29.0051C28.6104 25.9952 28.2808 26.3252 28.2808 26.7195V32.0004C28.2808 32.4006 28.605 32.7247 29.0051 32.7247C29.4051 32.7247 29.7294 32.4005 29.7294 32.0004V30.4278C30.0087 30.4266 30.3042 30.4256 30.4806 30.4256C31.7193 30.4256 32.7271 29.4318 32.7271 28.2103C32.7271 26.9888 31.7193 25.9952 30.4806 25.9952ZM30.4806 28.9769C30.3054 28.9769 30.0132 28.9779 29.7354 28.9791C29.7336 28.6926 29.7321 28.3892 29.7321 28.2103C29.7321 28.0578 29.7315 27.7443 29.731 27.4438H30.4806C30.9131 27.4438 31.2784 27.7948 31.2784 28.2103C31.2784 28.6259 30.913 28.9769 30.4806 28.9769Z" fill="#DFF6FD"/>
<path id="Vector_12" d="M36.9086 25.9952C35.048 25.9952 33.5342 27.5046 33.5342 29.36C33.5342 31.2153 35.048 32.7247 36.9086 32.7247C38.7678 32.7247 40.2803 31.2153 40.2803 29.36C40.2803 27.5046 38.7678 25.9952 36.9086 25.9952ZM36.9086 31.2761C35.8467 31.2761 34.9829 30.4165 34.9829 29.36C34.9829 28.3034 35.8467 27.4438 36.9086 27.4438C37.969 27.4438 38.8316 28.3034 38.8316 29.36C38.8316 30.4165 37.969 31.2761 36.9086 31.2761Z" fill="#DFF6FD"/>
</g>
<g id="Group_8">
<path id="Vector_13" fill-rule="evenodd" clip-rule="evenodd" d="M27.5264 44.4164L27.3321 43.1194L27.0939 41.5328C27.0719 41.3854 27.1212 41.2325 27.228 41.1287L28.9911 39.3347L29.2758 39.048C29.388 38.9333 29.3579 38.8432 29.2019 38.8159L26.3164 38.3353C26.1713 38.3107 26.0399 38.2151 25.9715 38.0841L24.6218 35.4982C24.5479 35.3561 24.4493 35.3561 24.3781 35.4982L23.0257 38.0841C22.9572 38.2151 22.8285 38.3107 22.6808 38.3353L19.798 38.8159C19.6419 38.8432 19.6118 38.9332 19.7213 39.048L20.006 39.3347L21.7718 41.1287C21.8758 41.2325 21.9251 41.3854 21.9032 41.5328L21.665 43.1194L21.4706 44.4164C21.4487 44.5747 21.5254 44.6321 21.6678 44.5612L24.4986 43.1522L27.3294 44.5612C27.4717 44.6322 27.5511 44.5748 27.5264 44.4164Z" fill="#FEF056"/>
</g>
<g id="Group_9">
<path id="Vector_14" fill-rule="evenodd" clip-rule="evenodd" d="M23.8086 36.5878C24.6792 37.5408 25.2349 38.9826 25.2349 40.5937C25.2349 40.6756 25.2322 40.7602 25.2295 40.8422C25.1994 41.6668 25.0242 42.4396 24.7394 43.1196C24.7203 43.1605 24.7038 43.2042 24.6847 43.2452L27.3293 44.5613C27.4717 44.6323 27.551 44.575 27.5264 44.4166L27.3321 43.1196L27.0939 41.533C27.0719 41.3856 27.1212 41.2327 27.228 41.1289L27.7674 40.5772L28.9911 39.3348L29.2758 39.0481C29.388 38.9334 29.3579 38.8432 29.2019 38.816L26.3164 38.3354C26.1713 38.3108 26.0399 38.2152 25.9715 38.0842L24.6218 35.4982C24.5479 35.3562 24.4493 35.3562 24.3781 35.4982L23.8086 36.5878Z" fill="#F4D902"/>
</g>
<g id="Group_10">
<path id="Vector_15" fill-rule="evenodd" clip-rule="evenodd" d="M15.0782 43.4391L14.9194 42.3686L14.7222 41.0579C14.7058 40.9377 14.7469 40.8094 14.8317 40.722L16.2909 39.242L16.5236 39.0044C16.6167 38.9116 16.5921 38.8351 16.4606 38.8133L14.0788 38.4174C13.9583 38.3955 13.8516 38.3191 13.7941 38.2098L12.6799 36.0745C12.6197 35.9571 12.5375 35.9571 12.4773 36.0745L11.3631 38.2098C11.3056 38.319 11.1988 38.3955 11.0783 38.4174L8.69653 38.8133C8.5651 38.8351 8.54044 38.9115 8.63353 39.0044L8.86894 39.242L10.3254 40.722C10.413 40.8094 10.4541 40.9377 10.4349 41.0579L10.2378 42.3686L10.079 43.4391C10.0598 43.5701 10.1228 43.6165 10.2405 43.5592L12.5785 42.3959L14.9166 43.5592C15.0344 43.6165 15.0973 43.5701 15.0782 43.4391Z" fill="#FEF056"/>
</g>
<g id="Group_11">
<path id="Vector_16" fill-rule="evenodd" clip-rule="evenodd" d="M12.0093 36.9729C12.7266 37.7621 13.1865 38.9499 13.1865 40.2797C13.1865 40.3507 13.1838 40.4189 13.1811 40.4873C13.1591 41.1672 13.0141 41.8061 12.7759 42.3686C12.7622 42.4042 12.7458 42.4369 12.7321 42.4724L14.9167 43.5592C15.0345 43.6165 15.0974 43.5701 15.0783 43.4391L14.9195 42.3686L14.7223 41.0579C14.7032 40.9377 14.747 40.8094 14.8318 40.722L15.2781 40.2687L16.291 39.242L16.5237 39.0044C16.6168 38.9116 16.5922 38.8351 16.4607 38.8133L14.0789 38.4174C13.9584 38.3955 13.8517 38.3191 13.7942 38.2098L12.68 36.0745C12.6198 35.9571 12.5376 35.9571 12.4774 36.0745L12.0093 36.9729Z" fill="#F4D902"/>
</g>
<g id="Group_12">
<path id="Vector_17" fill-rule="evenodd" clip-rule="evenodd" d="M38.9209 43.4391L38.7593 42.3686L38.5622 41.0579C38.5458 40.9377 38.5868 40.8094 38.6717 40.722L40.1309 39.242L40.3636 39.0044C40.4567 38.9116 40.432 38.8351 40.3034 38.8132L37.9216 38.4173C37.7984 38.3955 37.6916 38.3191 37.6341 38.2098L36.5199 36.0717C36.4597 35.9571 36.3803 35.9571 36.32 36.0717L35.2031 38.2098C35.1456 38.319 35.0389 38.3955 34.9184 38.4173L32.5366 38.8132C32.4079 38.8351 32.3833 38.9115 32.4736 39.0044L32.709 39.242L34.1654 40.722C34.2529 40.8094 34.294 40.9377 34.2749 41.0579L34.0805 42.3686L33.919 43.4391C33.8999 43.5701 33.9628 43.6165 34.0805 43.5591L36.4186 42.3959L38.7566 43.5591C38.8744 43.6165 38.94 43.5701 38.9209 43.4391Z" fill="#FEF056"/>
</g>
<g id="Group_13">
<path id="Vector_18" fill-rule="evenodd" clip-rule="evenodd" d="M35.8491 36.9729C36.5691 37.7621 37.0263 38.9499 37.0263 40.2797C37.0263 40.3506 37.0263 40.4189 37.0236 40.4872C36.999 41.1672 36.8538 41.8061 36.6184 42.3686C36.602 42.4013 36.5883 42.4369 36.5719 42.4724L38.7566 43.5591C38.8743 43.6165 38.9401 43.5701 38.9208 43.4391L38.7593 42.3686L38.5622 41.0579C38.5457 40.9377 38.5868 40.8094 38.6717 40.722L39.1206 40.2687L40.1309 39.242L40.3636 39.0044C40.4567 38.9116 40.432 38.8351 40.3034 38.8132L37.9216 38.4173C37.7984 38.3955 37.6916 38.3191 37.6341 38.2098L36.5199 36.0717C36.4597 35.9571 36.3803 35.9571 36.32 36.0717L35.8491 36.9729Z" fill="#F4D902"/>
</g>
</g>
</g>
<defs>
<clipPath id="clip0_11_874">
<rect width="48" height="48" fill="white" transform="translate(0.5)"/>
</clipPath>
</defs>
</svg>
