<svg width="58" height="58" viewBox="0 0 58 58" fill="none" xmlns="http://www.w3.org/2000/svg">
<g id="money (1) 1">
<g id="Group">
<g id="Group_2">
<g id="Group_3">
<path id="Vector" d="M57.9186 32.2834C57.9185 32.2832 57.9185 32.283 57.9183 32.2827L46.9677 4.78662C46.7353 4.2024 46.0731 3.91719 45.4888 4.1496C45.4884 4.14974 45.488 4.14988 45.4876 4.15016L1.06227 21.8399C0.8811 21.9182 0.723979 22.0431 0.60685 22.202C0.237389 22.394 0.00398494 22.7739 0 23.1902V52.7927C0 53.4214 0.509788 53.9312 1.13856 53.9312H48.9579C49.5867 53.9312 50.0964 53.4214 50.0964 52.7927V36.6252L57.283 33.7629C57.8671 33.5299 58.1516 32.8675 57.9186 32.2834ZM47.8193 51.6541H2.27711V24.3288H47.8193V51.6541ZM18.9968 22.0574L38.0608 14.4609C39.7622 16.2493 42.1197 17.2658 44.5881 17.2754L46.4895 22.0574H18.9968ZM50.0964 34.1796V23.1902C50.0964 22.5615 49.5867 22.0517 48.9579 22.0517H48.9397L46.5271 15.9923C46.5003 15.9418 46.4691 15.8937 46.4337 15.8488C46.3116 15.3005 45.8038 14.9263 45.2439 14.9721C42.9472 15.1815 40.7004 14.214 39.2745 12.4013C38.9197 11.9634 38.296 11.8545 37.8137 12.1462C37.7596 12.1526 37.706 12.1626 37.6532 12.1758L14.3788 21.4437C14.0972 21.5541 13.8719 21.7732 13.7537 22.0517H6.6856L45.2735 6.68687L55.3828 32.071L50.0964 34.1796Z" fill="#CDAA35"/>
<path id="Vector_2" d="M5.36713 43.9677C7.57763 44.6211 9.30738 46.3487 9.96348 48.5584C10.1074 49.0407 10.551 49.3712 11.0542 49.3713C11.1133 49.3676 11.1719 49.3588 11.2295 49.3451C11.2806 49.3596 11.3329 49.3703 11.3855 49.377H38.7109C38.7578 49.3709 38.8042 49.3613 38.8498 49.3485C39.4186 49.4869 39.9919 49.138 40.1304 48.5692C40.1308 48.5671 40.1313 48.5651 40.1318 48.5629C40.7862 46.351 42.5162 44.621 44.7281 43.9666C45.2645 43.8026 45.5978 43.2681 45.5092 42.7142C45.5244 42.659 45.5354 42.6026 45.5422 42.5457V33.4372C45.5355 33.3802 45.5241 33.3238 45.508 33.2687C45.5973 32.7147 45.2638 32.1798 44.727 32.0163C42.5151 31.3621 40.7854 29.6313 40.1329 27.4188C39.9681 26.8787 39.4283 26.5446 38.8714 26.6378C38.8187 26.6231 38.7651 26.6124 38.7109 26.6059H11.3855C11.3282 26.6127 11.2714 26.6241 11.2159 26.6401C10.6621 26.5518 10.1279 26.885 9.96348 27.4211C9.30866 29.6326 7.57877 31.3621 5.36713 32.0163C4.83073 32.1803 4.49741 32.7148 4.58608 33.2687C4.57128 33.3241 4.5606 33.3803 4.5542 33.4372V42.5457C4.56075 42.5992 4.57142 42.6521 4.58608 42.7039C4.49272 43.2614 4.82674 43.8019 5.36713 43.9677ZM6.83131 33.8995C9.11753 32.9812 10.9295 31.1692 11.8478 28.883H38.2475C39.1661 31.1692 40.9786 32.9812 43.2651 33.8995V42.0834C40.9796 43.0027 39.1678 44.8144 38.2486 47.0999H11.8478C10.9285 44.8144 9.11682 43.0027 6.83131 42.0834V33.8995Z" fill="#CDAA35"/>
<path id="Vector_3" d="M25.0483 44.8228C28.8211 44.8228 31.8796 41.7643 31.8796 37.9914C31.8796 34.2185 28.8211 31.1601 25.0483 31.1601C21.2754 31.1601 18.2169 34.2185 18.2169 37.9914C18.2206 41.7627 21.2769 44.8191 25.0483 44.8228ZM25.0483 33.4372C27.5635 33.4372 29.6025 35.4762 29.6025 37.9914C29.6025 40.5066 27.5635 42.5456 25.0483 42.5456C22.533 42.5456 20.494 40.5066 20.494 37.9914C20.494 35.4762 22.533 33.4372 25.0483 33.4372Z" fill="#CDAA35"/>
<path id="Vector_4" d="M12.5241 39.6993C13.4673 39.6993 14.232 38.9346 14.232 37.9915C14.232 37.0483 13.4673 36.2836 12.5241 36.2836C11.581 36.2836 10.8163 37.0483 10.8163 37.9915C10.8163 38.9348 11.581 39.6993 12.5241 39.6993ZM12.5241 37.4222C12.8385 37.4222 13.0934 37.6771 13.0934 37.9915C13.0934 38.3058 12.8385 38.5607 12.5241 38.5607C12.2097 38.5607 11.9548 38.3058 11.9548 37.9915C11.9548 37.6771 12.2097 37.4222 12.5241 37.4222Z" fill="#CDAA35"/>
<path id="Vector_5" d="M37.5723 39.6993C38.5155 39.6993 39.2802 38.9346 39.2802 37.9915C39.2802 37.0483 38.5155 36.2836 37.5723 36.2836C36.6292 36.2836 35.8645 37.0483 35.8645 37.9915C35.8645 38.9348 36.6292 39.6993 37.5723 39.6993ZM37.5723 37.4222C37.8867 37.4222 38.1416 37.6771 38.1416 37.9915C38.1416 38.3058 37.8867 38.5607 37.5723 38.5607C37.258 38.5607 37.0031 38.3058 37.0031 37.9915C37.0031 37.6771 37.258 37.4222 37.5723 37.4222Z" fill="#CDAA35"/>
</g>
</g>
</g>
</g>
</svg>
