<svg width="49" height="48" viewBox="0 0 49 48" fill="none" xmlns="http://www.w3.org/2000/svg">
<g id="roulette 1" clip-path="url(#clip0_11_907)">
<g id="Group">
<path id="Vector" d="M24.4999 40.6244C33.6813 40.6244 41.1243 33.1814 41.1243 24C41.1243 14.8186 33.6813 7.37558 24.4999 7.37558C15.3185 7.37558 7.87549 14.8186 7.87549 24C7.87549 33.1814 15.3185 40.6244 24.4999 40.6244Z" fill="#FED402"/>
<path id="Vector_2" d="M24.4999 36.4076C31.3525 36.4076 36.9075 30.8525 36.9075 24C36.9075 17.1475 31.3525 11.5924 24.4999 11.5924C17.6474 11.5924 12.0923 17.1475 12.0923 24C12.0923 30.8525 17.6474 36.4076 24.4999 36.4076Z" fill="#FEF056"/>
<g id="Group_2">
<path id="Vector_3" d="M26.8764 21.6236C27.0179 21.765 27.2033 21.8358 27.3887 21.8358C27.574 21.8358 27.7595 21.765 27.9009 21.6236L33.7703 15.7542C33.449 15.3932 33.1069 15.0511 32.7458 14.7297L26.8764 20.5991C26.5936 20.8821 26.5936 21.3407 26.8764 21.6236Z" fill="#FED402"/>
<path id="Vector_4" d="M33.7703 32.2458L27.9009 26.3764C27.618 26.0936 27.1595 26.0936 26.8764 26.3764C26.5936 26.6593 26.5936 27.1178 26.8764 27.4009L32.7458 33.2703C33.1069 32.9489 33.449 32.6068 33.7703 32.2458Z" fill="#FED402"/>
<path id="Vector_5" d="M22.1236 26.3764C21.8408 26.0937 21.3822 26.0935 21.0992 26.3764L15.2297 32.2459C15.5511 32.6069 15.8931 32.9489 16.2541 33.2703L22.1235 27.4009C22.4066 27.1178 22.4066 26.6593 22.1236 26.3764Z" fill="#FED402"/>
<path id="Vector_6" d="M21.6116 21.8358C21.797 21.8358 21.9824 21.765 22.1238 21.6236C22.4067 21.3407 22.4067 20.8821 22.1238 20.5991L16.2544 14.7297C15.8934 15.0511 15.5514 15.3931 15.23 15.7541L21.0995 21.6236C21.2409 21.765 21.4262 21.8358 21.6116 21.8358Z" fill="#FED402"/>
</g>
<path id="Vector_7" d="M24.4999 30.0861C27.8611 30.0861 30.5859 27.3612 30.5859 24C30.5859 20.6388 27.8611 17.9139 24.4999 17.9139C21.1386 17.9139 18.4138 20.6388 18.4138 24C18.4138 27.3612 21.1386 30.0861 24.4999 30.0861Z" fill="#FDB441"/>
<path id="Vector_8" d="M24.5 27.9783C26.6972 27.9783 28.4783 26.1972 28.4783 24C28.4783 21.8029 26.6972 20.0217 24.5 20.0217C22.3029 20.0217 20.5217 21.8029 20.5217 24C20.5217 26.1972 22.3029 27.9783 24.5 27.9783Z" fill="#FE9901"/>
<g id="Group_3">
<path id="Vector_9" d="M23.7185 14.7846H23.7756V22.6432C23.7756 23.0434 24.0999 23.3676 24.5 23.3676C24.9 23.3676 25.2244 23.0433 25.2244 22.6432V14.7846H25.2815C25.6816 14.7846 26.0058 14.4604 26.0058 14.0603C26.0058 13.6603 25.6815 13.336 25.2815 13.336H25.2244V12.9121C25.2244 12.512 24.9 12.1878 24.5 12.1878C24.0999 12.1878 23.7756 12.5121 23.7756 12.9121V13.336H23.7185C23.3184 13.336 22.9941 13.6603 22.9941 14.0603C22.9941 14.4604 23.3184 14.7846 23.7185 14.7846Z" fill="#685E68"/>
<path id="Vector_10" d="M35.5881 23.2757H35.1642V23.2185C35.1642 22.8184 34.8399 22.4942 34.4399 22.4942C34.0398 22.4942 33.7156 22.8185 33.7156 23.2185V23.2757H25.8569C25.4568 23.2757 25.1326 23.6 25.1326 24C25.1326 24.4 25.4568 24.7243 25.8569 24.7243H33.7156V24.7814C33.7156 25.1815 34.0398 25.5057 34.4399 25.5057C34.8399 25.5057 35.1642 25.1814 35.1642 24.7814V24.7243H35.5881C35.9883 24.7243 36.3124 24.4 36.3124 24C36.3124 23.6 35.9883 23.2757 35.5881 23.2757Z" fill="#685E68"/>
<path id="Vector_11" d="M25.2815 33.2153H25.2244V25.3567C25.2244 24.9566 24.9 24.6324 24.5 24.6324C24.0999 24.6324 23.7756 24.9567 23.7756 25.3567V33.2153H23.7185C23.3184 33.2153 22.9941 33.5396 22.9941 33.9396C22.9941 34.3397 23.3184 34.6639 23.7185 34.6639H23.7756V35.0879C23.7756 35.488 24.0999 35.8122 24.5 35.8122C24.9 35.8122 25.2244 35.4879 25.2244 35.0879V34.6639H25.2815C25.6816 34.6639 26.0058 34.3397 26.0058 33.9396C26.0058 33.5396 25.6815 33.2153 25.2815 33.2153Z" fill="#685E68"/>
<path id="Vector_12" d="M23.1433 24.7244C23.5433 24.7244 23.8676 24.4001 23.8676 24.0001C23.8676 23.6 23.5433 23.2758 23.1433 23.2758H15.2847V23.2186C15.2847 22.8184 14.9604 22.4943 14.5604 22.4943C14.1604 22.4943 13.8361 22.8185 13.8361 23.2186V23.2758H13.4121C13.012 23.2758 12.6877 23.6 12.6877 24.0001C12.6877 24.4001 13.012 24.7244 13.4121 24.7244H13.8361V24.7815C13.8361 25.1816 14.1604 25.5058 14.5604 25.5058C14.9604 25.5058 15.2847 25.1815 15.2847 24.7815V24.7244H23.1433Z" fill="#685E68"/>
</g>
<path id="Vector_13" d="M24.5001 26.3238C25.7834 26.3238 26.8238 25.2834 26.8238 24C26.8238 22.7166 25.7834 21.6762 24.5001 21.6762C23.2167 21.6762 22.1763 22.7166 22.1763 24C22.1763 25.2834 23.2167 26.3238 24.5001 26.3238Z" fill="#FEF056"/>
<path id="Vector_14" d="M24.5 4.98694V0C21.2458 0 18.1436 0.649031 15.3137 1.8225L17.2226 6.43078C19.4643 5.50106 21.922 4.98694 24.5 4.98694Z" fill="#FE646F"/>
<path id="Vector_15" d="M31.7774 6.43069L33.6863 1.82241C30.8564 0.649031 27.7542 0 24.5 0V4.98694C27.078 4.98694 29.5356 5.50106 31.7774 6.43069Z" fill="#97DA7B"/>
<path id="Vector_16" d="M17.2226 6.43079L15.3138 1.82251C12.3805 3.03882 9.74007 4.81885 7.52954 7.02948L11.0559 10.5558C12.807 8.80454 14.8989 7.39435 17.2226 6.43079Z" fill="#685E68"/>
<path id="Vector_17" d="M37.9442 10.5558L41.4705 7.02948C39.26 4.81895 36.6195 3.03892 33.6862 1.82251L31.7773 6.43079C34.1012 7.39435 36.193 8.80445 37.9442 10.5558Z" fill="#FE646F"/>
<path id="Vector_18" d="M42.0693 31.2774L46.6776 33.1863C47.8511 30.3564 48.5 27.2543 48.5 24H43.5131C43.5131 26.578 42.999 29.0357 42.0693 31.2774Z" fill="#685E68"/>
<path id="Vector_19" d="M42.0693 16.7226L46.6776 14.8137C45.4612 11.8805 43.6812 9.24001 41.4706 7.02939L37.9443 10.5557C39.6956 12.307 41.1058 14.3988 42.0693 16.7226Z" fill="#685E68"/>
<path id="Vector_20" d="M11.0558 10.5558L7.52948 7.02948C5.31895 9.24001 3.53892 11.8805 2.32251 14.8138L6.93079 16.7227C7.89435 14.3989 9.30454 12.307 11.0558 10.5558Z" fill="#FE646F"/>
<path id="Vector_21" d="M43.5132 24H48.5001C48.5001 20.7458 47.8512 17.6436 46.6776 14.8137L42.0693 16.7226C42.9991 18.9643 43.5132 21.422 43.5132 24Z" fill="#FE646F"/>
<path id="Vector_22" d="M6.93069 16.7226L2.32241 14.8137C1.14903 17.6436 0.5 20.7458 0.5 23.9999H5.48694C5.48694 21.422 6.00106 18.9643 6.93069 16.7226Z" fill="#685E68"/>
<path id="Vector_23" d="M24.5 43.0131V48C27.7543 48 30.8565 47.351 33.6863 46.1775L31.7774 41.5692C29.5357 42.4989 27.078 43.0131 24.5 43.0131Z" fill="#FE646F"/>
<path id="Vector_24" d="M31.7776 41.5692L33.6864 46.1775C36.6197 44.9611 39.2601 43.1811 41.4707 40.9705L37.9444 37.4442C36.1931 39.1955 34.1014 40.6056 31.7776 41.5692Z" fill="#685E68"/>
<path id="Vector_25" d="M42.0693 31.2774C41.1057 33.6012 39.6956 35.693 37.9443 37.4442L41.4706 40.9705C43.6812 38.76 45.4612 36.1195 46.6776 33.1862L42.0693 31.2774Z" fill="#FE646F"/>
<path id="Vector_26" d="M24.5 43.0131C21.922 43.0131 19.4644 42.4989 17.2226 41.5693L15.3137 46.1776C18.1436 47.351 21.2458 48 24.5 48V43.0131Z" fill="#97DA7B"/>
<path id="Vector_27" d="M6.93079 31.2775L2.32251 33.1863C3.53892 36.1195 5.31895 38.76 7.52948 40.9705L11.0558 37.4442C9.30454 35.6931 7.89435 33.6012 6.93079 31.2775Z" fill="#685E68"/>
<path id="Vector_28" d="M11.0559 37.4442L7.52954 40.9705C9.74007 43.1811 12.3806 44.9612 15.3139 46.1775L17.2227 41.5692C14.8989 40.6057 12.8071 39.1955 11.0559 37.4442Z" fill="#FE646F"/>
<path id="Vector_29" d="M5.48694 24V23.9999H0.5V24C0.5 27.2543 1.14903 30.3565 2.3225 33.1863L6.93078 31.2774C6.00106 29.0357 5.48694 26.578 5.48694 24Z" fill="#FE646F"/>
<path id="Vector_30" d="M24.5001 9.6165V4.98694C21.9221 4.98694 19.4644 5.50106 17.2227 6.43069L18.9947 10.7087C20.6906 10.0055 22.5498 9.6165 24.5001 9.6165Z" fill="#FD4755"/>
<path id="Vector_31" d="M18.9945 10.7088L17.2224 6.43079C14.8987 7.39444 12.8069 8.80454 11.0557 10.5558L14.3293 13.8294C15.6541 12.5046 17.2366 11.4378 18.9945 10.7088Z" fill="#554E56"/>
<path id="Vector_32" d="M30.0054 10.7088L31.7774 6.43069C29.5357 5.50106 27.078 4.98694 24.5 4.98694V9.6165C26.4503 9.6165 28.3094 10.0055 30.0054 10.7088Z" fill="#80D261"/>
<path id="Vector_33" d="M14.3293 13.8294L11.0557 10.5558C9.30441 12.307 7.89423 14.3989 6.93066 16.7226L11.2087 18.4946C11.9378 16.7367 13.0045 15.1542 14.3293 13.8294Z" fill="#FD4755"/>
<path id="Vector_34" d="M38.8834 24H43.513C43.513 21.422 42.9989 18.9643 42.0693 16.7226L37.7913 18.4946C38.4946 20.1905 38.8834 22.0497 38.8834 24Z" fill="#FD4755"/>
<path id="Vector_35" d="M11.2088 18.4946L6.93081 16.7226C6.00119 18.9643 5.48706 21.4219 5.48706 23.9999H10.1166C10.1166 22.0497 10.5055 20.1905 11.2088 18.4946Z" fill="#554E56"/>
<path id="Vector_36" d="M34.6706 13.8294L37.9442 10.5557C36.193 8.80444 34.1011 7.39426 31.7774 6.43069L30.0054 10.7088C31.7633 11.4378 33.3457 12.5046 34.6706 13.8294Z" fill="#FD4755"/>
<path id="Vector_37" d="M37.7913 18.4945L42.0693 16.7225C41.1057 14.3987 39.6956 12.3069 37.9443 10.5557L34.6707 13.8294C35.9955 15.1541 37.0623 16.7366 37.7913 18.4945Z" fill="#554E56"/>
<path id="Vector_38" d="M30.0054 37.2912L31.7774 41.5693C34.1012 40.6057 36.193 39.1955 37.9442 37.4443L34.6706 34.1707C33.3458 35.4954 31.7633 36.5622 30.0054 37.2912Z" fill="#554E56"/>
<path id="Vector_39" d="M34.6707 34.1706L37.9443 37.4442C39.6956 35.693 41.1057 33.6012 42.0693 31.2774L37.7912 29.5054C37.0622 31.2633 35.9954 32.8458 34.6707 34.1706Z" fill="#FD4755"/>
<path id="Vector_40" d="M38.8834 24C38.8834 25.9503 38.4945 27.8094 37.7913 29.5054L42.0694 31.2774C42.999 29.0357 43.5131 26.578 43.5131 24H38.8834Z" fill="#554E56"/>
<path id="Vector_41" d="M24.5 38.3835V43.0131C27.078 43.0131 29.5357 42.4989 31.7775 41.5693L30.0055 37.2912C28.3095 37.9945 26.4503 38.3835 24.5 38.3835Z" fill="#FD4755"/>
<path id="Vector_42" d="M11.2087 29.5055L6.93066 31.2775C7.89432 33.6013 9.30441 35.6931 11.0557 37.4443L14.3293 34.1706C13.0044 32.8459 11.9377 31.2634 11.2087 29.5055Z" fill="#554E56"/>
<path id="Vector_43" d="M10.1165 24V23.9999H5.48682V24C5.48682 26.578 6.00094 29.0357 6.93057 31.2775L11.2086 29.5055C10.5053 27.8095 10.1165 25.9503 10.1165 24Z" fill="#FD4755"/>
<path id="Vector_44" d="M24.5001 38.3835C22.5498 38.3835 20.6907 37.9945 18.9947 37.2913L17.2227 41.5694C19.4644 42.499 21.9221 43.0132 24.5001 43.0132V38.3835Z" fill="#80D261"/>
<path id="Vector_45" d="M14.3293 34.1707L11.0557 37.4443C12.8069 39.1956 14.8988 40.6057 17.2225 41.5693L18.9946 37.2912C17.2366 36.5622 15.6542 35.4954 14.3293 34.1707Z" fill="#FD4755"/>
</g>
</g>
<defs>
<clipPath id="clip0_11_907">
<rect width="48" height="48" fill="white" transform="translate(0.5)"/>
</clipPath>
</defs>
</svg>
