<svg width="49" height="48" viewBox="0 0 49 48" fill="none" xmlns="http://www.w3.org/2000/svg">
<g id="star (1) 1" clip-path="url(#clip0_11_168)">
<path id="Vector" d="M47.1562 17.4089L32.4735 15.2754L25.9071 1.97054C25.3328 0.806731 23.6677 0.806168 23.0929 1.97054L16.5267 15.2754L1.844 17.4089C0.559907 17.5956 0.0441887 19.1788 0.974376 20.0854L11.5988 30.4418L9.0906 45.0651C8.98953 45.6538 9.2315 46.2487 9.71488 46.5999C10.1981 46.9509 10.8386 46.9972 11.3673 46.7192L24.5 39.8152C38.7974 47.3316 37.8154 46.8996 38.3627 46.8996C39.3298 46.8996 40.0745 46.0277 39.9094 45.0651L37.4013 30.4418L48.0258 20.0854C48.955 19.1795 48.4413 17.5958 47.1562 17.4089Z" fill="#F7AC16"/>
<path id="Vector_2" d="M24.5001 1.09586C23.9016 1.09586 23.3567 1.43607 23.0928 1.97054L16.5266 15.2754L1.844 17.4089C0.559907 17.5956 0.0441887 19.1788 0.974376 20.0854L11.5988 30.4418L9.0906 45.0651C8.98953 45.6538 9.2315 46.2487 9.71488 46.5999C10.1981 46.9509 10.8386 46.9972 11.3673 46.7192L24.5 39.8152H24.5001V1.09586Z" fill="#F2D422"/>
<path id="Vector_3" d="M1.844 17.4089C0.559907 17.5955 0.0441887 19.1788 0.974376 20.0854L11.5988 30.4417L9.0906 45.0651C8.98953 45.6538 9.2315 46.2486 9.71488 46.5998C10.1981 46.9508 10.8386 46.9971 11.3673 46.7192L24.5 39.8151C38.7974 47.3315 37.8154 46.8995 38.3627 46.8995C38.688 46.8995 39.0118 46.7984 39.2851 46.5998L16.5266 15.2753L1.844 17.4089Z" fill="#F7AC16"/>
<path id="Vector_4" d="M17.2398 28.6355C5.85913 17.5419 6.34831 18.1365 6.19559 17.5612C6.13344 17.3301 6.12069 17.0612 6.18828 16.7776L1.844 17.4088C0.559907 17.5955 0.0441887 19.1787 0.974376 20.0853L11.5988 30.4417L9.0906 45.0651C8.98953 45.6538 9.2315 46.2487 9.71488 46.5998C10.1981 46.9508 10.8386 46.9972 11.3673 46.7192L15.2286 44.6892C14.8314 44.3315 14.6399 43.793 14.7316 43.2588L17.2398 28.6355Z" fill="#F48B19"/>
<path id="Vector_5" d="M0.974331 20.0854L11.5987 30.4417L9.09055 45.0651C8.98949 45.6538 9.23146 46.2487 9.71483 46.5998C10.198 46.9508 10.8385 46.9972 11.3673 46.7192L24.5 39.8152C38.7974 47.3316 37.8154 46.8996 38.3627 46.8996C39.3298 46.8996 40.0745 46.0277 39.9094 45.0651L37.4013 30.4417L0.577112 18.4768C0.393644 19.1345 0.5773 19.6986 0.974331 20.0854Z" fill="#F2D422"/>
<path id="Vector_6" d="M0.974331 20.0854L11.5987 30.4417L9.09055 45.0651C8.98949 45.6538 9.23146 46.2487 9.71483 46.5998C10.198 46.9508 10.8385 46.9972 11.3673 46.7192L15.2285 44.6892C14.8313 44.3315 14.6399 43.793 14.7316 43.2588L17.2398 28.6355L9.93871 21.5186L0.577112 18.4768C0.393644 19.1345 0.5773 19.6986 0.974331 20.0854Z" fill="#EFB616"/>
<path id="Vector_7" d="M9.09054 45.0651C8.98948 45.6538 9.23144 46.2486 9.71482 46.5998C10.198 46.9508 10.8385 46.9971 11.3673 46.7192L24.4999 39.8151C38.7974 47.3316 37.8153 46.8996 38.3627 46.8996C39.3298 46.8996 40.0744 46.0277 39.9093 45.0651L37.4013 30.4417L48.0257 20.0854C48.4533 19.6685 48.6072 19.0448 48.4228 18.4769L11.5987 30.4417L9.09054 45.0651Z" fill="#F7AC16"/>
<path id="Vector_8" d="M9.09054 45.0651C8.98948 45.6538 9.23144 46.2487 9.71482 46.5999C10.198 46.9509 10.8385 46.9972 11.3673 46.7192L15.2285 44.6892C14.8313 44.3315 14.6399 43.793 14.7316 43.2588L17.2398 28.6355L17.2192 28.6155L11.5987 30.4418L9.09054 45.0651Z" fill="#F48B19"/>
<path id="Vector_9" d="M11.3674 46.7192L24.5 39.8152C38.7974 47.3316 37.8154 46.8996 38.3627 46.8996C39.3298 46.8996 40.0745 46.0277 39.9094 45.0651L37.4013 30.4418L48.0258 20.0854C48.9548 19.1795 48.4412 17.5958 47.1561 17.4089L32.4734 15.2755L9.71484 46.5999C10.198 46.9509 10.8385 46.9972 11.3674 46.7192Z" fill="#F2D422"/>
<path id="Vector_10" d="M48.4229 18.4768L24.5 26.2498L9.71484 46.5998C10.198 46.9508 10.8385 46.9972 11.3673 46.7192L24.5 39.8152C38.7974 47.3316 37.8154 46.8996 38.3627 46.8996C39.3298 46.8996 40.0745 46.0277 39.9094 45.0651L37.4013 30.4417L48.0258 20.0854C48.4535 19.6684 48.6073 19.0448 48.4229 18.4768Z" fill="#F7AC16"/>
<path id="Vector_11" d="M37.4014 30.4418L24.5 26.2498L9.71484 46.5998C10.198 46.9508 10.8385 46.9972 11.3673 46.7192L24.5 39.8152C38.7974 47.3316 37.8154 46.8996 38.3627 46.8996C39.3298 46.8996 40.0745 46.0277 39.9094 45.0651L37.4014 30.4418Z" fill="#F2D422"/>
<path id="Vector_12" d="M9.71484 46.5998C10.198 46.9508 10.8385 46.9972 11.3673 46.7192L24.5 39.8152C38.7974 47.3316 37.8154 46.8996 38.3627 46.8996C38.688 46.8996 39.0118 46.7984 39.2851 46.5998L24.5 26.2498L9.71484 46.5998Z" fill="#F7AC16"/>
<path id="Vector_13" d="M24.5001 26.25L24.5 26.2498L9.71484 46.5999C10.198 46.9509 10.8385 46.9972 11.3673 46.7192L24.5 39.8152H24.5001V26.25Z" fill="#F2D422"/>
<path id="Vector_14" d="M15.5318 38.5936L9.71484 46.5998C10.198 46.9508 10.8385 46.9972 11.3673 46.7192L15.2286 44.6892C14.8313 44.3315 14.6399 43.793 14.7316 43.2588L15.5318 38.5936Z" fill="#EFB616"/>
</g>
<defs>
<clipPath id="clip0_11_168">
<rect width="48" height="48" fill="white" transform="translate(0.5)"/>
</clipPath>
</defs>
</svg>
